<svg xmlns="http://www.w3.org/2000/svg" width="18" height="18" viewBox="0 0 25 24">
    <g fill="none" fill-rule="evenodd">
        <g>
            <g>
                <g>
                    <path d="M0 0H24V24H0z" transform="translate(-36.000000, -299.000000) translate(30.000000, 167.000000) translate(6.995000, 132.000000)"/>
                    <path fill="#FFF" fill-rule="nonzero" d="M12.005 2c-5.52 0-10 4.48-10 10s4.48 10 10 10 10-4.48 10-10-4.48-10-10-10zm-4 15.5c-1.38 0-2.5-1.12-2.5-2.5s1.12-2.5 2.5-2.5 2.5 1.12 2.5 2.5-1.12 2.5-2.5 2.5zm1.5-9.5c0-1.38 1.12-2.5 2.5-2.5s2.5 1.12 2.5 2.5-1.12 2.5-2.5 2.5-2.5-1.12-2.5-2.5zm6.5 9.5c-1.38 0-2.5-1.12-2.5-2.5s1.12-2.5 2.5-2.5 2.5 1.12 2.5 2.5-1.12 2.5-2.5 2.5z" transform="translate(-36.000000, -299.000000) translate(30.000000, 167.000000) translate(6.995000, 132.000000)"/>
                </g>
            </g>
        </g>
    </g>
</svg>
