<svg xmlns="http://www.w3.org/2000/svg" xmlns:xlink="http://www.w3.org/1999/xlink" width="18" height="18" viewBox="0 0 18 18">
    <defs>
        <path id="a" d="M0 0h18v18H0z"/>
    </defs>
    <g fill="none" fill-rule="evenodd">
        <mask id="b" fill="#fff">
            <use xlink:href="#a"/>
        </mask>
        <g mask="url(#b)">
            <g transform="translate(1.5 1.5)">
                <rect width="15" height="15" stroke="#006CF0" stroke-linecap="round" stroke-linejoin="round" stroke-width="1.2" rx="2"/>
                <path fill="#006CF0" d="M8.984 9.393a.935.935 0 0 0-.336-.739c-.225-.194-.6-.37-1.123-.526a9.785 9.785 0 0 1-1.223-.433C5.334 7.256 4.85 6.608 4.85 5.749c0-.582.21-1.06.63-1.435.42-.375.99-.598 1.71-.668V2.5h.997v1.157c.724.087 1.283.346 1.678.775.395.43.592.988.592 1.675H8.947c0-.442-.117-.79-.352-1.044s-.554-.381-.958-.381c-.399 0-.71.091-.935.273-.225.183-.337.444-.337.784 0 .305.111.55.334.733.222.184.6.359 1.132.523.532.165.95.317 1.253.458.304.14.56.3.767.48.208.181.368.389.48.624.113.235.169.51.169.825 0 .593-.215 1.073-.646 1.44-.43.369-1.03.586-1.799.653V12.5h-.992v-1.02c-.823-.077-1.456-.326-1.899-.747-.443-.42-.664-.977-.664-1.671h1.516c0 .441.132.783.396 1.025.264.242.637.363 1.12.363.473 0 .834-.097 1.081-.29a.925.925 0 0 0 .371-.767z"/>
            </g>
        </g>
    </g>
</svg>
