<svg xmlns="http://www.w3.org/2000/svg" width="24" height="24" viewBox="0 0 24 24">
    <g fill="none" fill-rule="evenodd">
        <g>
            <g>
                <g>
                    <path d="M0 0H24V24H0z" transform="translate(-37.000000, -519.000000) translate(30.000000, 167.000000) translate(7.000000, 352.000000)"/>
                    <path fill="#FFF" fill-rule="nonzero" d="M17 5c1.1 0 2 .9 2 2v3.35L14.48 16H10c0 1.66-1.34 3-3 3s-3-1.34-3-3H2v-3c0-2.21 1.79-4 4-4h4v5h3.52L17 9.65V7h-3V5zm2 8c1.66 0 3 1.34 3 3s-1.34 3-3 3-3-1.34-3-3 1.34-3 3-3zM8 16H6c0 .55.45 1 1 1s1-.45 1-1zm11-1c-.55 0-1 .45-1 1s.45 1 1 1 1-.45 1-1-.45-1-1-1zm-9-9v2H5V6h5z" transform="translate(-37.000000, -519.000000) translate(30.000000, 167.000000) translate(7.000000, 352.000000)"/>
                </g>
            </g>
        </g>
    </g>
</svg>