<svg xmlns="http://www.w3.org/2000/svg" width="24" height="24" viewBox="0 0 24 24">
    <g fill="none" fill-rule="evenodd">
        <g>
            <g>
                <g>
                    <g>
                        <g>
                            <path d="M0 0L24 0 24 24 0 24z" transform="translate(-538.000000, -170.000000) translate(300.000000, 0.000000) translate(168.000000, 100.000000) translate(60.000000, 60.000000) translate(10.000000, 10.000000)"/>
                            <path fill="#FFF" fill-rule="nonzero" d="M20.894 15.553c.23.458.074 1.01-.345 1.283l-.102.058-8 4c-.241.121-.519.138-.77.052l-.124-.052-8-4c-.494-.247-.694-.847-.447-1.341.229-.459.763-.664 1.234-.494l.107.047L12 18.88l7.553-3.775c.494-.247 1.094-.047 1.341.447zm0-4c.23.458.074 1.01-.345 1.283l-.102.058-8 4c-.241.121-.519.138-.77.052l-.124-.052-8-4c-.494-.247-.694-.847-.447-1.341.229-.459.763-.664 1.234-.494l.107.047L12 14.88l7.553-3.775c.494-.247 1.094-.047 1.341.447zm-9.341-8.447c.281-.141.613-.141.894 0l8 4c.737.368.737 1.42 0 1.788l-8 4c-.281.141-.613.141-.894 0l-8-4c-.737-.368-.737-1.42 0-1.788zM12 5.118L6.236 8 12 10.881 17.763 8 12 5.118z" transform="translate(-538.000000, -170.000000) translate(300.000000, 0.000000) translate(168.000000, 100.000000) translate(60.000000, 60.000000) translate(10.000000, 10.000000)"/>
                        </g>
                    </g>
                </g>
            </g>
        </g>
    </g>
</svg>
