<svg xmlns="http://www.w3.org/2000/svg" width="18" height="18" viewBox="0 0 25 24">
    <g fill="none" fill-rule="evenodd">
        <g>
            <g>
                <g>
                    <path d="M0 0L24 0 24 24 0 24z" transform="translate(-36.000000, -563.000000) translate(30.000000, 167.000000) translate(6.995000, 396.000000)"/>
                    <path fill="#FFF" fill-rule="nonzero" d="M19 14V6c0-1.1-.9-2-2-2H3c-1.1 0-2 .9-2 2v8c0 1.1.9 2 2 2h14c1.1 0 2-.9 2-2zm-9-1c-1.66 0-3-1.34-3-3s1.34-3 3-3 3 1.34 3 3-1.34 3-3 3zm13-6v11c0 1.1-.9 2-2 2H4v-2h17V7h2z" transform="translate(-36.000000, -563.000000) translate(30.000000, 167.000000) translate(6.995000, 396.000000)"/>
                </g>
            </g>
        </g>
    </g>
</svg>
