<svg xmlns="http://www.w3.org/2000/svg" width="24" height="24" viewBox="0 0 24 24">
    <g fill="none" fill-rule="evenodd">
        <g>
            <g>
                <g>
                    <path d="M0 0H24V24H0z" transform="translate(-37.000000, -726.000000) translate(30.000000, 167.000000) translate(7.000000, 559.000000)"/>
                    <path fill="#FFF" fill-rule="nonzero" d="M15.525 5c.791 0 1.509.466 1.83 1.19l2.602 5.857c.017.04.028.076.035.113l.008.09V17c0 1.105-.895 2-2 2H6c-1.105 0-2-.895-2-2v-4.75c0-.07.014-.137.04-.197l.003-.006L6.645 6.19C6.966 5.466 7.684 5 8.475 5zM5 17c0 .513.386.936.883.993L6 18h12c.552 0 1-.448 1-1v-4.25h-3.733l-1.351 2.027c-.074.112-.189.187-.317.213L13.5 15h-3c-.134 0-.26-.053-.353-.146l-.063-.077-1.352-2.027H5zM15.525 6h-7.05c-.396 0-.755.233-.916.596L5.268 11.75H9c.134 0 .26.053.353.146l.063.077 1.351 2.026h2.465l1.352-2.026c.074-.112.189-.187.317-.213l.099-.01h3.731l-2.29-5.155c-.125-.282-.37-.485-.66-.562l-.126-.025-.13-.008z" transform="translate(-37.000000, -726.000000) translate(30.000000, 167.000000) translate(7.000000, 559.000000)"/>
                </g>
            </g>
        </g>
    </g>
</svg>
