<svg xmlns="http://www.w3.org/2000/svg" width="18" height="18" viewBox="0 0 18 18">
    <path fill="#FFF" d="M0 2C0 .9.89 0 2 0h14c1.1 0 2 .9 2 2v14c0 1.1-.9 2-2 2H2c-1.11 0-2-.9-2-2V2zm10.658 9.598c0 .388-.138.696-.414.924-.275.228-.651.342-1.126.342-.573 0-1.012-.155-1.318-.467-.305-.312-.458-.76-.458-1.343H5c0 1.006.304 1.812.912 2.418.608.606 1.466.963 2.573 1.07V16h1.29v-1.465c1.004-.093 1.793-.4 2.366-.92.573-.52.859-1.197.859-2.031 0-.447-.076-.838-.227-1.174-.151-.337-.37-.636-.656-.898-.287-.263-.638-.499-1.054-.707-.416-.209-.947-.43-1.593-.666-.646-.236-1.087-.466-1.325-.692-.238-.226-.357-.525-.357-.898 0-.402.122-.718.365-.946.243-.228.586-.342 1.03-.342.448 0 .806.146 1.073.438.268.292.402.732.402 1.321H13c0-.957-.27-1.736-.81-2.337-.54-.601-1.29-.963-2.246-1.086V2H8.647v1.575c-.967.089-1.742.398-2.326.928-.583.53-.875 1.21-.875 2.039 0 .48.085.895.255 1.243.17.349.408.652.713.91.306.257.672.485 1.099.684.427.199.934.399 1.523.6.59.201 1.007.42 1.253.659.246.238.369.558.369.96z"/>
</svg>
