<svg xmlns="http://www.w3.org/2000/svg" width="24" height="24" viewBox="0 0 24 24">
    <g fill="none" fill-rule="evenodd">
        <g>
            <g>
                <g>
                    <g>
                        <g>
                            <path d="M0 0H24V24H0z" transform="translate(-535.000000, -896.000000) translate(300.000000, 0.000000) translate(168.000000, 828.000000) translate(57.000000, 58.000000) translate(10.000000, 10.000000)"/>
                            <path fill="#FFF" d="M16 1c.552 0 1 .448 1 1v2c0 .552-.448 1-1 1h-2v2h3c1.105 0 2 .895 2 2v12c0 1.105-.895 2-2 2H7c-1.105 0-2-.895-2-2V9c0-1.105.895-2 2-2h3V5H8c-.552 0-1-.448-1-1V2c0-.552.448-1 1-1h8zm-3 9h-2v4H7v2h4v4h2v-4h4v-2h-4v-4z" transform="translate(-535.000000, -896.000000) translate(300.000000, 0.000000) translate(168.000000, 828.000000) translate(57.000000, 58.000000) translate(10.000000, 10.000000)"/>
                        </g>
                    </g>
                </g>
            </g>
        </g>
    </g>
</svg>
