<svg xmlns="http://www.w3.org/2000/svg" width="24" height="24" viewBox="0 0 24 24">
    <g fill="none" fill-rule="evenodd">
        <g>
            <g>
                <g>
                    <g>
                        <g>
                            <path d="M0 0L24 0 24 24 0 24z" transform="translate(-538.000000, -1770.000000) translate(300.000000, 0.000000) translate(168.000000, 1700.000000) translate(60.000000, 60.000000) translate(10.000000, 10.000000)"/>
                            <path fill="#FFF" fill-rule="nonzero" d="M12 2c-4.2 0-8 3.22-8 8.2 0 3.32 2.67 7.25 8 11.8 5.33-4.55 8-8.48 8-11.8C20 5.22 16.2 2 12 2zm0 10c-1.1 0-2-.9-2-2s.9-2 2-2 2 .9 2 2-.9 2-2 2z" transform="translate(-538.000000, -1770.000000) translate(300.000000, 0.000000) translate(168.000000, 1700.000000) translate(60.000000, 60.000000) translate(10.000000, 10.000000)"/>
                        </g>
                    </g>
                </g>
            </g>
        </g>
    </g>
</svg>
