<svg xmlns="http://www.w3.org/2000/svg" width="24" height="24" viewBox="0 0 24 24">
    <g fill="none" fill-rule="evenodd">
        <g>
            <g>
                <g>
                    <g>
                        <g>
                            <path d="M0 0L24 0 24 24 0 24z" transform="translate(-538.000000, -1278.000000) translate(300.000000, 0.000000) translate(168.000000, 1208.000000) translate(60.000000, 60.000000) translate(10.000000, 10.000000)"/>
                            <path fill="#FFF" fill-rule="nonzero" d="M21 5h-2.64l1.14-3.14L17.15 1l-1.46 4H3v2l2 6-2 6v2h18v-2l-2-6 2-6V5zm-5 9h-3v3h-2v-3H8v-2h3V9h2v3h3v2z" transform="translate(-538.000000, -1278.000000) translate(300.000000, 0.000000) translate(168.000000, 1208.000000) translate(60.000000, 60.000000) translate(10.000000, 10.000000)"/>
                        </g>
                    </g>
                </g>
            </g>
        </g>
    </g>
</svg>
