<svg xmlns="http://www.w3.org/2000/svg" width="20" height="14" viewBox="0 0 20 14">
    <g fill="none" fill-rule="evenodd">
        <g fill="#FFF" fill-rule="nonzero">
            <g>
                <g>
                    <g>
                        <path d="M27 15c1.1 0 2 .9 2 2v3.35L24.48 26H20c0 1.66-1.34 3-3 3s-3-1.34-3-3h-2v-3c0-2.21 1.79-4 4-4h4v5h3.52L27 19.65V17h-3v-2zm2 8c1.66 0 3 1.34 3 3s-1.34 3-3 3-3-1.34-3-3 1.34-3 3-3zm-11 3h-2c0 .55.45 1 1 1s1-.45 1-1zm11-1c-.55 0-1 .45-1 1s.45 1 1 1 1-.45 1-1-.45-1-1-1zm-9-9v2h-5v-2h5z" transform="translate(-537.000000, -545.000000) translate(300.000000, 0.000000) translate(168.000000, 470.000000) translate(57.000000, 60.000000)"/>
                    </g>
                </g>
            </g>
        </g>
    </g>
</svg>
