<svg xmlns="http://www.w3.org/2000/svg" width="18" height="18" viewBox="0 0 24 24">
    <g fill="none" fill-rule="evenodd">
        <g>
            <g>
                <g>
                    <path d="M0 0H24V24H0z" transform="translate(-37.000000, -651.000000) translate(30.000000, 167.000000) translate(7.000000, 484.000000)"/>
                    <path fill="#FFF" fill-rule="nonzero" d="M21 2v17c0 1.66-1.34 3-3 3H6c-1.66 0-3-1.34-3-3v-3h3V2l1.5 1.5L9 2l1.5 1.5L12 2l1.5 1.5L15 2l1.5 1.5L18 2l1.5 1.5L21 2zm-2 3H8v11h9v3c0 .55.45 1 1 1s1-.45 1-1V5zm-4 5v2H9v-2h6zm3 0v2h-2v-2h2zm-3-3v2H9V7h6zm3 0v2h-2V7h2z" transform="translate(-37.000000, -651.000000) translate(30.000000, 167.000000) translate(7.000000, 484.000000)"/>
                </g>
            </g>
        </g>
    </g>
</svg>
