<svg xmlns="http://www.w3.org/2000/svg" width="24" height="24" viewBox="0 0 24 24">
    <g fill="none" fill-rule="evenodd">
        <g>
            <g>
                <g>
                    <path d="M0 0H24V24H0z" transform="translate(-37.000000, -689.000000) translate(30.000000, 167.000000) translate(7.000000, 522.000000)"/>
                    <path fill="#798C9E" d="M19.947 15.526c.11.22.043.482-.146.624l-.077.047-7.5 3.75c-.113.057-.241.068-.36.034l-.087-.034-7.5-3.75c-.247-.123-.348-.424-.224-.67.11-.22.36-.324.587-.257l.084.033L12 18.94l7.277-3.637c.246-.124.547-.024.67.223zm0-3.75c.11.22.043.482-.146.624l-.077.047-7.5 3.75c-.113.057-.241.068-.36.034l-.087-.034-7.5-3.75c-.247-.123-.348-.424-.224-.67.11-.22.36-.324.587-.257l.084.033L12 15.19l7.277-3.637c.246-.124.547-.024.67.223zm-8.17-7.723c.14-.07.306-.07.447 0l7.5 3.75c.368.184.368.71 0 .894l-7.5 3.75c-.141.07-.307.07-.447 0l-7.5-3.75c-.369-.184-.369-.71 0-.894zM12 5.059L5.618 8.25 12 11.44l6.381-3.19-6.38-3.191z" transform="translate(-37.000000, -689.000000) translate(30.000000, 167.000000) translate(7.000000, 522.000000)"/>
                </g>
            </g>
        </g>
    </g>
</svg>
