<svg xmlns="http://www.w3.org/2000/svg" width="494" height="412" viewBox="0 0 494 412">
    <defs>
        <linearGradient id="a" x1="25.559%" x2="80.702%" y1="113.049%" y2="11.897%">
            <stop offset="0%" stop-color="#FFF"/>
            <stop offset="100%" stop-color="#E8E4FF"/>
        </linearGradient>
    </defs>
    <g fill="none" fill-rule="evenodd">
        <path fill="#FFF" d="M419.805 47.83c7.317 3.07 10.755 11.482 7.68 18.789-3.074 7.306-11.497 10.74-18.813 7.67-7.317-3.07-10.755-11.483-7.68-18.79 3.074-7.306 11.497-10.74 18.813-7.67" opacity=".802"/>
        <path fill="#FFF" d="M434.932 44.07c6.1 7.426 7.99 17.906 4.012 27.359a26.643 26.643 0 0 1-12.9 13.635c-6.718 3.278-14.767 3.771-22.188.657-3.751-1.574-6.978-3.914-9.526-6.778a26.837 26.837 0 0 1-6.552-13.722 26.547 26.547 0 0 1 1.76-14.526c5.724-13.603 21.466-20.028 35.08-14.314a26.544 26.544 0 0 1 10.314 7.69m-47.146 5.888a28.45 28.45 0 0 0-1.829 15.862 28.759 28.759 0 0 0 5.2 12.222 28.326 28.326 0 0 0 11.963 9.428c8.873 3.724 18.6 2.633 26.223-2.06a28.445 28.445 0 0 0 11.354-13.247c4.22-10.028 2.277-21.137-4.118-29.075a28.392 28.392 0 0 0-11.225-8.458c-14.572-6.116-31.439.76-37.568 15.328M34.515 102.263c7.316 3.07 10.755 11.483 7.68 18.789-3.074 7.307-11.498 10.74-18.814 7.67-7.317-3.07-10.755-11.482-7.68-18.79 3.074-7.305 11.497-10.74 18.814-7.67" opacity=".802"/>
        <path fill="#FFF" d="M49.642 98.504c6.1 7.426 7.989 17.906 4.012 27.358a26.642 26.642 0 0 1-12.9 13.635c-6.72 3.278-14.768 3.772-22.189.658a26.38 26.38 0 0 1-9.526-6.779 26.841 26.841 0 0 1-6.552-13.721 26.544 26.544 0 0 1 1.76-14.527c5.724-13.602 21.467-20.027 35.08-14.314a26.547 26.547 0 0 1 10.315 7.69m-47.147 5.889a28.45 28.45 0 0 0-1.829 15.862 28.755 28.755 0 0 0 5.201 12.221 28.322 28.322 0 0 0 11.962 9.429c8.874 3.724 18.6 2.632 26.223-2.061a28.445 28.445 0 0 0 11.354-13.246c4.22-10.028 2.277-21.138-4.118-29.075a28.395 28.395 0 0 0-11.225-8.459c-14.571-6.115-31.438.761-37.568 15.329M327.532 35.181a3.633 3.633 0 0 1 1.946 4.76 3.641 3.641 0 0 1-4.766 1.942 3.633 3.633 0 0 1-1.945-4.759 3.641 3.641 0 0 1 4.765-1.943M309.788 32.414a3.633 3.633 0 0 1 1.946 4.759 3.641 3.641 0 0 1-4.766 1.943 3.633 3.633 0 0 1-1.945-4.76 3.641 3.641 0 0 1 4.765-1.942M294.445 58.68a1.806 1.806 0 0 1 .967 2.366 1.81 1.81 0 0 1-3.336-1.4 1.81 1.81 0 0 1 2.369-.967" opacity=".802"/>
        <path fill="#FFF" d="M331.364 34.23a6.775 6.775 0 0 1 1.016 6.929 6.747 6.747 0 0 1-3.268 3.454 6.791 6.791 0 0 1-5.62.166 6.682 6.682 0 0 1-2.413-1.717 6.796 6.796 0 0 1-1.659-3.475 6.724 6.724 0 0 1 .446-3.68c1.45-3.446 5.437-5.073 8.885-3.626a6.722 6.722 0 0 1 2.613 1.948m-11.942 1.492a7.206 7.206 0 0 0-.463 4.017 7.285 7.285 0 0 0 1.317 3.096 7.173 7.173 0 0 0 3.03 2.388 7.282 7.282 0 0 0 6.642-.522 7.204 7.204 0 0 0 2.876-3.355 7.251 7.251 0 0 0-1.043-7.364 7.192 7.192 0 0 0-2.843-2.143c-3.691-1.549-7.963.193-9.516 3.883M298.945 48.618a1.3 1.3 0 1 1-1.01 2.398 1.3 1.3 0 1 1 1.01-2.398" opacity=".802"/>
        <path fill="#FFF" d="M302.115 46.8a4.751 4.751 0 0 1 .713 4.86 4.733 4.733 0 0 1-2.292 2.422 4.764 4.764 0 0 1-3.941.117 4.767 4.767 0 0 1-2.856-3.642 4.716 4.716 0 0 1 .312-2.58 4.769 4.769 0 0 1 6.232-2.543c.738.31 1.358.786 1.832 1.366m-8.375 1.046a5.051 5.051 0 0 0-.325 2.818c.135.785.45 1.53.924 2.171a5.032 5.032 0 0 0 2.125 1.675 5.107 5.107 0 0 0 6.675-2.72 5.085 5.085 0 0 0-.732-5.164 5.045 5.045 0 0 0-1.993-1.502 5.108 5.108 0 0 0-6.674 2.722M487.621 153.924a6.013 6.013 0 0 1-7.049 4.75 6.006 6.006 0 0 1-4.757-7.039 6.013 6.013 0 0 1 7.05-4.75 6.006 6.006 0 0 1 4.756 7.04" opacity=".802"/>
        <path fill="#FFF" d="M490.458 159.79c-2.523 3.132-6.66 4.802-10.878 3.984a11.16 11.16 0 0 1-6.697-4.11c-1.92-2.468-2.811-5.718-2.17-9.02a11.024 11.024 0 0 1 1.965-4.478 11.251 11.251 0 0 1 5.068-3.855 11.151 11.151 0 0 1 6.109-.523c6.07 1.177 10.052 7.067 8.874 13.125a11.087 11.087 0 0 1-2.271 4.877m-6.452-18.782a11.951 11.951 0 0 0-6.662.61 12.06 12.06 0 0 0-4.568 3.174 11.831 11.831 0 0 0-2.843 5.7c-.768 3.95.513 7.835 3.09 10.551a11.918 11.918 0 0 0 6.406 3.51c4.474.868 8.864-.877 11.572-4.173a11.86 11.86 0 0 0 2.509-5.316c1.26-6.485-3.004-12.796-9.504-14.056M450.216 127.332a6.013 6.013 0 0 1-7.049 4.75 6.006 6.006 0 0 1-4.757-7.04 6.013 6.013 0 0 1 7.05-4.75 6.006 6.006 0 0 1 4.756 7.04M466.2 102.295a2.152 2.152 0 0 1-4.225-.819 2.151 2.151 0 0 1 4.225.82" opacity=".802"/>
        <path fill="#FFF" d="M470.215 106.801a7.875 7.875 0 0 1-7.629 2.794 7.828 7.828 0 0 1-4.697-2.882 7.844 7.844 0 0 1-1.521-6.326 7.725 7.725 0 0 1 1.378-3.14 7.89 7.89 0 0 1 3.554-2.704 7.822 7.822 0 0 1 4.284-.367c4.256.825 7.05 4.956 6.224 9.204a7.778 7.778 0 0 1-1.593 3.421M465.69 93.63a8.382 8.382 0 0 0-4.672.428 8.457 8.457 0 0 0-3.204 2.226 8.295 8.295 0 0 0-1.993 3.997 8.41 8.41 0 0 0 2.167 7.4 8.36 8.36 0 0 0 4.492 2.462 8.427 8.427 0 0 0 8.116-2.927 8.32 8.32 0 0 0 1.76-3.728c.883-4.548-2.107-8.974-6.666-9.858" opacity=".802"/>
        <path fill="#FFADAE" d="M256.003 130.23l1.432-1.442a10.025 10.025 0 0 0 2.845-8.224l-.128-1.09a2.463 2.463 0 0 1 .04-.811l.877-4.01a2.999 2.999 0 0 0-.145-1.754l-.026-.065a.898.898 0 0 1 .774-1.237.944.944 0 0 1 .75.271l.549.546a5.384 5.384 0 0 1 1.577 3.473l.153 2.396 5.097-2a3.173 3.173 0 0 1 2.803.241l.75.455c.34.207.562.563.597.96.021.248.15.475.352.621.512.37.81.967.798 1.597l-.015.83c-.008.427.149.831.424 1.138.307.342.512.763.53 1.222v.02c.012.297-.027.594-.116.878l-1.025 3.266a2.86 2.86 0 0 1-1.603 1.773c-2.43 1.04-7.629 3.198-7.629 3.198l-6.569 6.706-3.092-8.958z"/>
        <path fill="#FFF" d="M263.156 135.837l-24.2 32.047a10.016 10.016 0 0 1-4.435 3.504c-1.984.8-4.215.964-6.373.383l-24.476-6.599-12.674-14.404-.592-.674.134-.985 1.208-8.85-2.65-18.572 12.82 8.788 1.651 1.222 26.067 19.27 26.562-24.17 6.958 9.04z"/>
        <path fill="#0981F3" d="M276.698 206.557c1.265-1.348 13.514-9.953 13.514-9.953L286.296 188l-14.042 3.214 4.444 15.343z"/>
        <g fill="#FFF" fill-opacity=".8">
            <path d="M55.9 212.644a.548.548 0 0 1 .01.007c1.37.023 2.738-.062 4.11-.043h.015c2.014-1.034 5.962-2.838 9.076-2.874 4.371-.05 5.847.853 6.824 2.858.977 2.005-2.023 4.13-4.41 4.093-2.308-.037-6.17-.54-12.195-3.104-1.026.006-2.051.052-3.077.05l.002.001a7139.454 7139.454 0 0 0 32.008 46.276c.165.233.326.465.487.693 6.71 9.605 11.984 17.06 14.059 19.825l-.733.645c-2.13-2.836-7.583-10.546-14.49-20.438l-.483-.691a6981.1 6981.1 0 0 1-31.68-45.805.585.585 0 0 1-.08.01l-.083.006c-.374.477-.693 1.008-.99 1.518-.244.415-.511.875-.723 1.353-.183 6.753-1.38 10.554-2.337 12.698-.973 2.176-4.168 3.995-5.576 2.265-1.408-1.73-1.606-3.447.284-7.384 1.334-2.779 4.589-5.567 6.389-6.967.2-.799.618-1.566 1.009-2.263.21-.377.435-.762.681-1.136-.612.052-1.22.13-1.818.282-1.052.265-2.24.34-3.336.647-7.476 7.935-13.027 11.273-16.52 12.865-3.6 1.641-9.573.402-9.422-3.293.15-3.694 1.79-6.046 8.467-8.871 5.327-2.254 13.72-1.832 16.896-1.57 1.956-.712 4.319-.864 6.361-1.055a.562.562 0 0 1 .005-.264c-.967-1.407-1.91-2.789-2.83-4.131-.18.116-.422.121-.597-.095-.185-.23-1.611-.218-2.044-.248-.306-.022-.614-.038-.921-.06-10.038 4.317-16.469 5.175-20.312 5.246-3.956.074-8.942-3.438-7.33-6.768 1.61-3.329 4.053-4.834 11.304-4.77 5.845.05 13.475 3.853 16.212 5.324.635.058 1.284.058 1.909.114.268.025.632.032.981.088a4060.838 4060.838 0 0 1-5.37-7.881.444.444 0 0 1-.294-.436c-.083-.12-.163-.24-.245-.36a.46.46 0 0 1-.583.047c-.798-.514-1.688-.838-2.552-1.22-9.609 1.26-15.312.443-18.617-.422-3.414-.894-6.841-5.115-4.651-7.583 2.19-2.468 4.652-3.169 10.86-1.36 4.861 1.416 10.307 6.275 12.442 8.318.75.366 1.541.649 2.29 1.02a1031.182 1031.182 0 0 1-5.22-7.767l-.003-.003c-1.442-.755-9.32-5.031-12.55-9.92-3.56-5.39-3.615-7.947-1.9-10.764 1.716-2.818 6.764-.792 8.627 2.202 1.73 2.784 4.071 7.691 5.696 16.525a865.692 865.692 0 0 0 6.505 9.706l.19-2.993c-.88-2.52-3.22-9.9-2.421-15.12.977-6.384 2.652-8.317 5.816-9.259 3.165-.942 5.55 3.941 4.922 7.41-.602 3.327-2.241 8.765-7.326 16.808l-.284 4.472.001.002c1.692 2.493 3.558 5.233 5.552 8.154.424-.993.567-2.248.562-3.23-.001-.155.057-.268.146-.34-.16-3.585-.186-11.21 2.047-16.114 3.001-6.592 5.399-8.17 9.1-8.223 3.702-.054 4.788 5.941 3.052 9.493-1.692 3.46-5.201 8.946-13.413 16.25-.098 1.06-.362 2.212-.86 3.09l2.63 3.843.002.003c.648-.764 1.104-1.693 1.752-2.458a19.19 19.19 0 0 1 1.763-1.79c1.002-2.761 4.222-10.91 8.65-14.903 5.38-4.854 8.209-5.347 11.626-3.925 3.417 1.422 2.023 7.354-.985 9.921-2.901 2.476-8.226 6.065-18.46 9.468-.792.7-1.566 1.44-2.18 2.285-.485.665-.896 1.387-1.419 2.02z"/>
            <path d="M47.942 260.768a.4.4 0 0 1 .008-.003c.559-.821 1.05-1.685 1.607-2.508a.436.436 0 0 1 .007-.01c.172-1.631.645-4.74 1.861-6.641 1.707-2.67 2.842-3.205 4.449-3 1.606.205 1.706 2.868.734 4.299-.94 1.385-2.78 3.525-6.734 6.157-.404.624-.783 1.264-1.193 1.884a5263.466 5263.466 0 0 0 38.18-.928c.391-.011.778-.024 1.16-.034.165.233.326.465.487.693l-1.163.031a4915.124 4915.124 0 0 1-38.685.942.422.422 0 0 1-.026.053l-.03.052c.141.417.337.821.529 1.204.156.313.328.657.535.975 4.03 2.796 5.864 5.032 6.786 6.465.936 1.454.77 4.114-.84 4.28-1.61.164-2.733-.398-4.374-3.108-1.158-1.913-1.558-4.994-1.693-6.641-.406-.44-.706-.998-.974-1.511-.145-.278-.29-.567-.42-.865a8.19 8.19 0 0 0-.551 1.214c-.257.743-.684 1.493-.933 2.279 1.85 7.684 1.672 12.375 1.251 15.124-.434 2.835-3.562 5.962-5.747 4.402-2.185-1.56-2.962-3.49-2.024-8.658.748-4.124 4.34-9.042 5.762-10.862.345-1.469 1.191-2.961 1.887-4.275a.409.409 0 0 1-.157-.108l-3.636.072c-.001.156-.094.305-.295.325-.213.021-.773.89-.964 1.14-.134.177-.266.358-.402.535-1.367 7.799-3.402 12.037-4.886 14.394-1.528 2.427-5.644 4.052-7.026 1.752-1.383-2.3-1.326-4.378 1.594-8.747 2.355-3.522 7.698-6.634 9.68-7.707.287-.362.545-.756.828-1.112.121-.153.27-.37.443-.559-2.476.046-4.799.087-6.92.12a.323.323 0 0 1-.384.006l-.316.005a.334.334 0 0 1-.203.372c-.63.28-1.181.69-1.756 1.062-3.054 6.323-5.817 9.455-7.657 11.114-1.9 1.713-5.827 2.112-6.456-.196-.63-2.308-.076-4.079 3.49-7.122 2.792-2.383 7.91-3.751 10-4.233.52-.31 1.005-.675 1.528-.98-2.704.038-5.01.064-6.794.073-1.027.571-6.76 3.65-11.017 3.663-4.69.015-6.266-.968-7.296-3.127-1.03-2.16 2.208-4.414 4.767-4.352 2.38.057 6.293.59 12.308 3.118 1.957-.003 4.883-.032 8.48-.087l-1.743-1.304c-1.881-.468-7.295-1.984-10.149-4.542-3.49-3.13-4-4.914-3.314-7.206.685-2.292 4.601-1.797 6.459-.037 1.782 1.688 4.434 4.842 7.3 11.12l2.606 1.951c2.188-.033 4.589-.076 7.158-.125h.003c-.435-.65-1.14-1.236-1.739-1.623a.304.304 0 0 1-.149-.224c-2.24-1.328-6.885-4.343-8.977-7.646-2.812-4.438-2.817-6.518-1.379-8.783 1.44-2.265 5.513-.54 6.981 1.925 1.43 2.4 3.37 6.708 4.543 14.587.605.48 1.2 1.098 1.535 1.75 1.101-.023 2.23-.045 3.38-.067h.003c-.207-.697-.59-1.342-.797-2.039a13.918 13.918 0 0 1-.387-1.78c-1.28-1.704-4.95-6.895-5.617-11.165-.81-5.19.014-7.1 2.237-8.606 2.222-1.506 5.272 1.697 5.636 4.54.352 2.743.415 7.396-1.585 14.95.111.759.253 1.522.522 2.23.212.558.487 1.094.664 1.663zM311.766 87.09c-.5-.472-.916-1.03-1.388-1.532-.598-.639-1.318-1.174-2.048-1.674-8.857-1.77-13.654-4.202-16.321-5.96-2.766-1.823-4.54-6.607-1.847-8.142 2.692-1.536 5.094-1.418 10.068 2.06 4.093 2.86 7.614 9.3 8.732 11.49a16.09 16.09 0 0 1 1.651 1.305c.617.57 1.093 1.294 1.71 1.862l.002-.003c.609-1.18 1.204-2.336 1.788-3.465-.506-.678-.845-1.608-1.036-2.48-7.58-5.22-11.066-9.416-12.83-12.117-1.81-2.772-1.53-7.866 1.552-8.204 3.082-.338 5.238.725 8.415 5.893 2.363 3.844 3.132 10.184 3.37 13.179a.35.35 0 0 1 .157.268c.098.816.347 1.845.802 2.626a3119 3119 0 0 0 3.769-7.35v-.001l-.7-3.687c-5.058-6.16-6.983-10.508-7.83-13.21-.88-2.818.596-7.123 3.323-6.667 2.728.456 4.32 1.89 5.793 7.093 1.205 4.255.025 10.63-.445 12.815l.468 2.468c1.886-3.7 3.405-6.713 4.4-8.738.434-7.509 1.871-11.829 3.021-14.321 1.237-2.681 5.223-4.886 6.94-2.722 1.718 2.164 1.937 4.294-.463 9.142-2.177 4.396-8.282 8.764-9.401 9.54l-.001.002a862.775 862.775 0 0 1-3.533 6.995c.583-.386 1.21-.703 1.796-1.085 1.563-1.918 5.585-6.52 9.477-8.198 4.972-2.144 7.09-1.817 9.166.008 2.076 1.824-.334 5.686-3.079 6.782-2.657 1.06-7.312 2.33-15.427 2.275-.678.406-1.385.768-1.995 1.278a.385.385 0 0 1-.488.02c-.056.11-.11.217-.167.325a.371.371 0 0 1-.199.392 3477.88 3477.88 0 0 1-3.646 7.105c.284-.083.586-.127.806-.175.514-.111 1.053-.178 1.575-.292 2.122-1.505 8.068-5.454 12.92-6.1 6.02-.802 8.205.196 9.89 2.797 1.682 2.6-2.096 6.033-5.392 6.381-3.2.338-8.633.29-17.422-2.26-.253.05-.507.095-.76.144-.356.07-1.542.208-1.673.418-.123.198-.324.218-.486.14-.625 1.211-1.266 2.457-1.923 3.726v.002a.47.47 0 0 1 .03.217c1.718-.053 3.698-.17 5.397.22 2.612-.547 9.542-1.765 14.202-.443 5.84 1.658 7.449 3.443 7.956 6.497.508 3.055-4.327 4.702-7.49 3.711-3.067-.962-8.025-3.163-15.06-8.984-.942-.141-1.937-.081-2.839-.193a9.48 9.48 0 0 0-1.54-.046c.243.285.47.582.684.873.397.54.824 1.134 1.073 1.777 1.64.977 4.635 2.958 6.031 5.129 1.978 3.076 1.992 4.524 1.001 6.107-.99 1.583-3.835.402-4.868-1.306-1.018-1.683-2.406-4.718-3.258-10.31-.226-.377-.496-.73-.74-1.05-.301-.393-.621-.802-.981-1.16l-.07.005a.49.49 0 0 1-.067 0 5837.633 5837.633 0 0 1-21.58 41.337l-.33.624c-4.714 8.934-8.447 15.905-9.923 18.482l-.676-.46c1.439-2.513 5.048-9.253 9.63-17.928l.331-.626a5963.144 5963.144 0 0 0 21.805-41.765c-.852.108-1.708.176-2.561.277-4.741 2.753-7.899 3.57-9.814 3.84-1.979.278-4.692-1.18-4.088-2.946.604-1.767 1.737-2.67 5.375-3.08 2.591-.292 6.059.799 7.84 1.45a.504.504 0 0 1 .013-.001c1.137-.158 2.283-.229 3.419-.39a.459.459 0 0 1 .007-.006z"/>
        </g>
        <g fill="url(#a)" opacity=".196" transform="translate(27 195.265)">
            <path d="M64.437 185.102c85.915 42.177 225.212 42.178 311.126.001 85.916-42.178 85.916-110.558 0-152.735C289.648-9.81 150.351-9.81 64.436 32.367c-85.915 42.177-85.915 110.558 0 152.735"/>
        </g>
        <g fill="url(#a)" opacity=".196" transform="translate(93 264.265)">
            <path d="M80.387 104.384c-18.237 8.692-47.803 8.692-66.04 0-18.236-8.69-18.236-22.783 0-31.476 18.237-8.691 47.803-8.691 66.04 0 18.236 8.693 18.236 22.786 0 31.476M315.279 38.904c-18.237 8.693-47.804 8.693-66.04 0-18.236-8.69-18.236-22.783 0-31.476 18.236-8.691 47.803-8.691 66.04 0 18.236 8.693 18.236 22.786 0 31.476"/>
        </g>
        <g>
            <path fill="#003677" d="M198.009 191.606l-39.606 22.867c-1.47.848-2.896 2.891-3.186 4.563l-9.842 56.828c-.29 1.673.667 3.716 2.136 4.565l25.539 14.744c1.469.849 3.852.849 5.32 0l54.583-31.514c1.47-.848 2.66-2.826 2.66-4.418 0-1.591-1.19-3.57-2.66-4.417l-19.638-11.34c-1.47-.848-2.801-2.904-2.973-4.592l-4.37-42.883c-.171-1.688-1.428-3.702-2.806-4.498-1.38-.796-3.688-.752-5.157.095"/>
            <path fill="#3A6EAE" d="M175.709 285.18l.001 10.629c.963 0 1.926-.212 2.661-.636l54.582-31.513c1.469-.85 2.661-2.827 2.661-4.418 0-.932-.415-1.99-1.048-2.882h-8.936l-49.921 28.82z"/>
            <path fill="#1A2E35" d="M203 194.489l-39.606 22.867c-1.47.848-2.895 2.89-3.184 4.563l-8.937 51.588c-.289 1.67.667 3.715 2.137 4.563l19.64 11.338c1.47.849 3.851.849 5.32 0l54.583-31.512c1.47-.85 1.47-2.224 0-3.073l-19.639-11.338c-1.47-.85-2.8-2.905-2.972-4.593l-4.37-42.882c-.172-1.688-1.502-2.37-2.972-1.521"/>
            <path fill="#194E8F" d="M232.953 254.823l-19.639-11.338c-.724-.419-1.413-1.132-1.948-1.948l-59.716 34.477c.385.86 1.002 1.618 1.761 2.056l19.638 11.338c1.47.85 3.852.85 5.321 0l54.583-31.513c1.47-.848 1.47-2.224 0-3.072M72.147 304.632l-2.536-1.464c-2.057-1.187-3.724-4.076-3.724-6.452l-.001-170.09c0-2.374 1.67-5.26 3.73-6.441L277.412.884c2.06-1.182 5.397-1.178 7.455.009L286.8 2.01c2.058 1.187 3.725 4.076 3.725 6.452V178.55c0 2.375-1.667 5.264-3.725 6.452L79.597 304.632c-2.057 1.187-5.393 1.187-7.45 0"/>
            <path fill="#003677" d="M80.862 130.972l-13.883-8.015c-.675 1.166-1.093 2.482-1.093 3.67v170.09c0 2.375 1.668 5.263 3.726 6.451l2.535 1.464c2.057 1.187 5.393 1.187 7.45 0l1.265-.73v-172.93z"/>
            <path fill="#00132A" d="M75.872 302.481V132.393c0-2.375 1.667-5.264 3.725-6.452L286.8 6.311c2.058-1.188 3.725-.225 3.725 2.15V178.55c0 2.375-1.667 5.264-3.725 6.452L79.597 304.632c-2.058 1.187-3.725.224-3.725-2.151"/>
            <path fill="#E1E1E1" d="M173.168 239.083l19.638-11.338c1.47-.849 2.661-.246 2.661 1.346s-1.19 3.57-2.66 4.418l-19.638 11.338c-1.47.85-2.662.246-2.662-1.346 0-1.59 1.191-3.569 2.661-4.418"/>
            <path fill="#FFF" d="M85.416 131.142L280.56 18.16c1.175-.68 2.127-.132 2.127 1.226v148.241c0 1.357-.953 3.008-2.129 3.687L85.417 283.977c-1.175.68-2.128.128-2.128-1.229V134.831c0-1.357.952-3.009 2.127-3.689"/>
            <path fill="#EAEEF1" d="M92.69 133.985L271.737 30.626c3.25-1.877 5.909-.342 5.909 3.411V162.75c0 1.742-1.235 3.881-2.744 4.752L91.632 273.297c-1.509.871-2.744.158-2.744-1.584V140.57c0-2.415 1.711-5.378 3.802-6.585"/>
            <path fill="#FFF" d="M166.106 111.503l98.668-56.966v19.814l-98.668 56.966zM166.106 139.164l98.668-56.966v49.64l-98.668 56.965z"/>
            <path fill="#006CF0" d="M277.645 37.12v-3.083c0-3.752-2.658-5.288-5.908-3.41L92.69 133.984c-2.09 1.207-3.802 4.171-3.802 6.585v5.517L277.645 37.12z"/>
            <path fill="#FFF" d="M252.866 44.147c-1.124.648-2.035 2.227-2.035 3.524 0 1.298.91 1.825 2.035 1.176 1.124-.65 2.035-2.227 2.035-3.525s-.911-1.824-2.035-1.175M260.941 39.484c-1.124.65-2.035 2.227-2.035 3.525s.911 1.824 2.035 1.175 2.035-2.227 2.035-3.525-.911-1.824-2.035-1.175M269.017 34.822c-1.124.65-2.035 2.227-2.035 3.525 0 1.297.911 1.824 2.035 1.175s2.035-2.227 2.035-3.525-.91-1.824-2.035-1.175M98.522 151.741v61.957l53.567-30.978v-62.007l-53.567 31.028zm-1.056 64.843a1.056 1.056 0 0 1-1.056-1.056v-64.396c0-.377.2-.725.527-.914l55.679-32.25a1.056 1.056 0 0 1 1.586.913v64.45c0 .376-.201.724-.528.913l-55.679 32.198a1.055 1.055 0 0 1-.529.142z"/>
            <path fill="#FFF" d="M133.958 143.2c-2.467 0-5.233.846-8.123 2.52-10.39 6.018-18.842 20.69-18.842 32.707 0 5.595 1.83 9.732 5.153 11.648 3.316 1.914 7.802 1.43 12.631-1.362 10.39-6.008 18.842-20.68 18.842-32.706 0-5.602-1.83-9.743-5.156-11.659-1.33-.768-2.85-1.148-4.505-1.148m-17.305 50.141c-2.023 0-3.9-.476-5.563-1.436-4.004-2.31-6.21-7.097-6.21-13.478 0-12.688 8.926-28.18 19.896-34.535 5.51-3.19 10.744-3.678 14.742-1.374 4.006 2.31 6.213 7.1 6.213 13.49 0 12.697-8.926 28.19-19.897 34.533-3.217 1.861-6.342 2.8-9.18 2.8"/>
        </g>
        <g>
            <path fill="#1A2E35" d="M355.69 129.346h32.651V100.08c0-9.016-7.309-16.326-16.326-16.326-9.015 0-16.325 7.31-16.325 16.326v29.266z"/>
            <path fill="#FFAAA8" d="M365.962 121.408l-23.366.89c-.817-.697-5.44-6.213-5.44-6.213s-12.699-1.628-12.776-1.167c-.077.46 12.491 13.9 13.734 15.257.689.75 1.319 1.35 2.966 1.45 3.287.197 21.393 1.335 21.393 1.335l3.49-11.552z"/>
            <path fill="#FFF" d="M245.592 226.742l-.697-.402c-1.114-.643-2.016-2.207-2.016-3.493V151.05c0-1.286.902-2.85 2.016-3.493l92.22-53.236c1.115-.643 2.92-.643 4.034 0l.696.402c1.114.643 2.017 2.207 2.017 3.493v71.798c0 1.287-.904 2.85-2.017 3.493l-92.22 53.236c-1.114.643-2.92.643-4.033 0"/>
            <path fill="#F5F5F5" d="M343.842 97.891c-.138-1.046-.982-1.426-1.996-.845l-92.225 53.244c-.559.317-1.056.877-1.425 1.5l-4.722-2.725c.36-.633.867-1.182 1.426-1.509l92.214-53.235c1.12-.644 2.926-.644 4.035 0l.697.402c1.014.591 1.87 1.953 1.996 3.168"/>
            <path fill="#E1E1E1" d="M249.284 226.9c-1.11.477-2.683.423-3.686-.157l-.708-.402c-1.108-.644-2.006-2.207-2.006-3.495V151.05c0-.644.22-1.362.59-1.985l4.722 2.725c-.36.633-.592 1.35-.592 1.985v71.805c0 1.15.729 1.69 1.68 1.32"/>
            <path fill="#CCD8E5" d="M256.925 154.245l6.937-4.005c.504-.292.914-.055.914.528v7.795c0 .583-.413 1.29-.92 1.576l-6.926 3.915c-.508.287-.92.046-.92-.537v-7.688c0-.584.41-1.292.915-1.584"/>
            <path fill="#2B454E" d="M262.962 159.029c-.229.133-.448.144-.599.03l-2.143-1.622c-.287-.217-.25-.815.08-1.336.331-.524.832-.77 1.117-.552l1.495 1.13 4.15-8.92c.259-.557.755-.93 1.107-.835.353.095.429.625.17 1.18l-4.737 10.183c-.143.307-.367.573-.607.723a.537.537 0 0 1-.032.019"/>
            <path fill="#CCD8E5" d="M256.925 171.239l6.937-4.004c.504-.292.914-.056.914.527v7.796c0 .583-.413 1.288-.92 1.576l-6.926 3.914c-.508.287-.92.047-.92-.536v-7.69c0-.582.41-1.291.915-1.583"/>
            <path fill="#2B454E" d="M262.962 176.023c-.229.133-.448.144-.599.03l-2.143-1.622c-.287-.217-.25-.815.08-1.337.331-.523.832-.768 1.117-.551l1.495 1.13 4.15-8.92c.259-.557.755-.93 1.107-.835.353.095.429.625.17 1.181l-4.737 10.182c-.143.307-.367.573-.607.723a.537.537 0 0 1-.032.019"/>
            <path fill="#CCD8E5" d="M256.925 188.233l6.937-4.004c.504-.292.914-.056.914.527v7.795c0 .584-.413 1.289-.92 1.577l-6.926 3.914c-.508.287-.92.047-.92-.536v-7.689c0-.583.41-1.292.915-1.584"/>
            <path fill="#2B454E" d="M262.962 193.017c-.229.133-.448.144-.599.03l-2.143-1.622c-.287-.217-.25-.815.08-1.337.331-.523.832-.769 1.117-.55l1.495 1.13 4.15-8.92c.259-.558.755-.93 1.107-.836.353.095.429.625.17 1.181l-4.737 10.182c-.143.307-.367.573-.607.723a.537.537 0 0 1-.032.02"/>
            <path fill="#CCD8E5" d="M256.925 205.272l6.937-4.005c.504-.292.914-.055.914.528v7.796c0 .583-.413 1.288-.92 1.576l-6.926 3.915c-.508.287-.92.046-.92-.537v-7.688c0-.584.41-1.292.915-1.584"/>
            <path fill="#2B454E" d="M262.962 210.056c-.229.133-.448.144-.599.03l-2.143-1.622c-.287-.217-.25-.815.08-1.336.331-.524.832-.769 1.117-.552l1.495 1.13 4.15-8.92c.259-.557.755-.93 1.107-.835.353.095.429.625.17 1.181l-4.737 10.182c-.143.307-.367.573-.607.723a.537.537 0 0 1-.032.02"/>
            <path fill="#ADB9C4" d="M273.356 146.93c0 .943.818 1.235 1.829.652l26.372-15.225c1.01-.583 1.829-1.821 1.829-2.764 0-.944-.819-1.237-1.829-.653l-26.371 15.226c-1.011.583-1.83 1.82-1.83 2.764"/>
            <path fill="#CCD8E5" d="M273.356 152.657c0 .943.818 1.235 1.829.652l56.401-32.516c1.01-.584 1.83-1.822 1.83-2.765 0-.944-.82-1.236-1.83-.653l-56.4 32.518c-1.011.583-1.83 1.82-1.83 2.764"/>
            <path fill="#ADB9C4" d="M273.356 163.554c0 .943.818 1.235 1.829.652l26.372-15.225c1.01-.584 1.829-1.822 1.829-2.765 0-.944-.819-1.236-1.829-.653l-26.371 15.226c-1.011.584-1.83 1.821-1.83 2.765"/>
            <path fill="#CCD8E5" d="M273.356 169.281c0 .943.818 1.235 1.829.652l56.401-32.517c1.01-.583 1.83-1.82 1.83-2.764 0-.944-.82-1.236-1.83-.653l-56.4 32.518c-1.011.583-1.83 1.821-1.83 2.764"/>
            <path fill="#ADB9C4" d="M273.356 181.235c0 .943.818 1.235 1.829.652l26.372-15.225c1.01-.583 1.829-1.821 1.829-2.765 0-.943-.819-1.236-1.829-.652l-26.371 15.226c-1.011.583-1.83 1.82-1.83 2.764"/>
            <path fill="#CCD8E5" d="M273.356 186.962c0 .943.818 1.235 1.829.652l56.401-32.517c1.01-.583 1.83-1.82 1.83-2.765 0-.943-.82-1.236-1.83-.652l-56.4 32.517c-1.011.584-1.83 1.821-1.83 2.765"/>
            <path fill="#ADB9C4" d="M273.356 198.916c0 .943.818 1.235 1.829.652l26.372-15.225c1.01-.583 1.829-1.82 1.829-2.765 0-.943-.819-1.236-1.829-.652l-26.371 15.226c-1.011.583-1.83 1.821-1.83 2.764"/>
            <path fill="#CCD8E5" d="M273.356 204.643c0 .943.818 1.235 1.829.652l56.401-32.516c1.01-.584 1.83-1.822 1.83-2.765 0-.944-.82-1.236-1.83-.653l-56.4 32.518c-1.011.583-1.83 1.821-1.83 2.764"/>
            <path fill="#1A2E35" d="M355.396 280.177c-1.884 2.063-3.963 3.716-6.193 5.387-.333.25-.679.514-.86.89-.293.607-.747 2.111 2.024 3.077 2.705.944 6.08.724 8.545-.82 2.275-1.424 2.376-4.386 4.521-6.074 1.591-1.252 3.577-1.573 4.862-3.208.895-1.138.662-2.654.195-4.529-.509-2.048-.744-3.597-1.422-3.44l.111.942c-.845 1.35-5.227 1.748-7.178.817 0 0-3.376 5.612-4.605 6.958"/>
            <path fill="#FFAAA8" d="M353.475 282.092v-.015a30.202 30.202 0 0 0 1.922-1.902c.792-.867 2.477-3.505 3.576-5.271.668-1.074 1.154-2.358 1.002-3.774l-.546-5.046 6.944-.492.807 6.809c.168 1.543-1.107 2.913-3.367 4.86-2.259 1.947-5.129 6.488-7.175 7.63-2.045 1.143-3.508 1.1-4.38.516-.898-.602-.986-1.064 1.217-3.315"/>
            <path fill="#1A2E35" d="M386.587 280.798v-1.044c-.411 1.225-2.32 6.494-5.216 9.135-2.302 2.099-5.441 4.525-6.24 6.865-.832 2.435 4.369 3.252 6.518 2.872 2.5-.443 5.733-1.861 7.493-4.022 1.238-1.52 2.025-3.322 2.909-4.517.883-1.196 2.92-2.531 3.397-3.914.262-.76-.05-2.424-.418-3.831-.339-1.29-.706-2.71-1.145-2.588v.796c-.53.587-1.995 1.17-3.65 1.233-1.067.04-3.658-.171-3.649-.985"/>
            <path fill="#FFAAA8" d="M379.288 290.736c.714-.637 1.432-1.26 2.083-1.854 2.023-1.846 3.565-4.975 4.45-7.11a10.02 10.02 0 0 0 .767-3.84v-4.16h7.297V280.725l-.037.019c-.351 1.516-3.7 5.55-5.603 8.18-1.275 1.763-3.698 4.006-6.595 4.393-2.744.366-4.146-.5-2.362-2.58"/>
            <path fill="#006CF0" d="M392.432 167.388c5.657 12.356-.204 55.883-.204 55.883.17 2.006 2.463 5.95 3.317 14.776 1.01 10.428-1.584 36.61-1.584 36.61s-3.379 2.21-7.375.294c0 0-6.954-39.434-8.26-49.801-1.143-9.05-3.334-30.316-3.334-30.316l-6.566 30.326s1.346 4.95 1.278 8.984c-.1 6.127-2.955 32.964-2.955 32.964s-2.54 1.488-7.32.784c0 0-4.602-35.266-4.466-43.487.073-4.4 1.992-51.24 1.992-51.24l35.477-5.777z"/>
            <path fill="#1A2E35" d="M374.992 194.834l-1.837-10.104s-7.77-1.61-11.294-4.923c0 0 3.697 4.599 9.189 6.106l2.063 8.836-3.731 26 5.61-25.915zM375.671 84.751l.377-4.28c-1.2-.146-2.26.694-2.364 1.876-.104 1.182.786 2.258 1.987 2.404"/>
            <path fill="#1A2E35" d="M375.9 85.184l3.467-2.54c-.683-1-2.013-1.241-2.97-.54-.957.702-1.18 2.08-.496 3.08"/>
            <path fill="#FFF" d="M379.5 121.716s8.332.723 9.506 1.25c-5.98 6.546 3.114 9.263 3.114 9.263l-6.227 22.285c3.736 5.704 6.125 10.117 7.532 15.736-4.203 7.406-27.816 8.435-36.47 2.916.754-10.337 2.433-17.738 1.874-20.84-2.948-12.678-2.84-15.354-2.453-18.253.756-5.662 6.375-10.598 9.587-12.666h2.996l10.54.31z"/>
            <path fill="#FFAAA8" d="M362.562 91.731c-1.759 1.04-3.934 5.466-3.719 14.742.182 7.861 2.731 9.802 4.01 10.363 1.28.56 3.747.22 6.146-.18v4.717s-3.315 3.851-3.107 6.015c.21 2.163 4.788 2.675 7.891.561 3.102-2.114 5.716-6.233 5.716-6.233l-.054-10.849s1.412 1.372 3.806-.72c1.976-1.73 2.642-4.644 1.102-6.207-1.54-1.564-4.387-1.138-5.479 1.091-.657 1.43-2.16 1.452-2.173-.175-.072-8.36-1.06-8.806-1.9-12.232-4.994-1.632-8.566-1.034-12.239-.893"/>
            <path fill="#1A2E35" d="M367.62 104.497c-.027.566.392 1.047.938 1.073.544.026 1.009-.413 1.039-.979.028-.567-.391-1.047-.937-1.073-.545-.025-1.011.413-1.04.98"/>
            <path fill="#FF9090" d="M367.357 111.162l-2.296.732c.191.658.859 1.026 1.493.824.634-.202.993-.9.803-1.556"/>
            <path fill="#1A2E35" d="M359.677 101.875l2-1.387a1.169 1.169 0 0 0-1.66-.341 1.28 1.28 0 0 0-.34 1.728M370.498 102.193l-2-1.386a1.167 1.167 0 0 1 1.66-.34c.554.382.705 1.155.34 1.726M359.976 103.783c-.028.566.391 1.046.937 1.072.544.026 1.01-.412 1.038-.98.028-.565-.39-1.045-.936-1.071-.545-.026-1.01.412-1.039.979"/>
            <path fill="#FF9090" d="M364.64 103.216l-.157 5.951-3.132-.97zM369 116.655c2.528-.332 7.729-1.826 8.54-3.882 0 0-.27 1.292-1.823 2.624-1.554 1.332-6.717 2.832-6.717 2.832v-1.574z"/>
            <path fill="#1A2E35" d="M367.771 84.842c-7.569 0-13.706 6.136-13.706 13.706v1.777h6.707a6.242 6.242 0 0 0 6.185-5.4l.246 5.4a4.963 4.963 0 0 0 4.944-4.53l.077-.882a5.88 5.88 0 0 0 5.861 5.412h.594l.688-9.684-11.596-5.799z"/>
            <path fill="#FFAAA8" d="M383.546 126.627c-1.865 2.752-12.47 25.998-12.47 25.998s-15.994-1.08-22.763-1.8c-2.134-.227-1.657-2.512-2.513-4.776-.857-2.264-1.939-1.82-1.939-1.82v3.016c.071 2.032-3.28 3.12-4.714 3.676-2.365.92-4.95 1.506-7.39 2.265-.826.256-1.725.57-2.166 1.313-.399.672-.305 1.556.074 2.24 1.106 1.993 3.265 3.095 5.473 3.357 2.722.324 5.363-.458 8.01-.929 3.128-.559 5.513-1.003 8.615-.59 2.975.395 6.86 1.22 9.812 1.754 3.404.616 8.46 1.201 11.423 1.326 2.137.091 3.68-.324 5.527-2.925 1.847-2.6 11.983-23.525 11.983-23.525 4.233-6.018 1.805-11.083-1.336-12.158-1.968-.674-3.76.827-5.626 3.578M318.974 104.228a11.96 11.96 0 0 1 2.372.58c1.945.691 3.703 1.985 4.781 3.747.475.776.698 1.952.581 2.853-.033.255-.093.51-.222.734-.24.42-.689.672-1.115.904-1.767.963-3.02 1.036-4.807.072-1.983-1.07-3.999-2.128-6.165-2.777-1.084-.324-2.2-.54-3.33-.59-.737-.034-1.163.293-1.785.652-.397-1.02-.176-1.8.453-2.683 1.072-1.503 2.687-2.58 4.45-3.13 1.535-.479 3.185-.583 4.787-.362"/>
        </g>
        <g>
            <path fill="#1A2E35" d="M131.582 162.62c0 5.792 4.694 10.486 10.485 10.486 5.79 0 10.486-4.694 10.486-10.485 0-5.791-4.695-10.485-10.486-10.485s-10.485 4.694-10.485 10.485"/>
            <path fill="#FFAAA8" d="M116.958 352.683h7.386v-12.644h-7.386zM142.565 339.364l7.381.254.37-13.38-7.75-.254z"/>
            <path fill="#2B454E" d="M117.443 231.673c0 7.053-.912 57.933-.912 57.933-.172 2.029-2.075 5.77-1.663 13.566.559 10.588 1.774 43.189 1.774 43.189s3.586 2.095 8.223.162c0 0 6.517-43.315 7.84-53.808 1.156-9.157 3.115-34.035 3.115-34.035l4.004 29.896s-1.361 5.462-.915 11.738c.345 4.853 3.189 34.906 3.189 34.906s3.476 2.359 8.528.652c0 0 3.732-42.843 3.817-47.296.098-5.077-2.456-56.903-2.456-56.903h-34.544z"/>
            <path fill="#00DFBF" d="M150.971 188.747c4.331 3.56 12.152 10.784 12.152 10.784l-12.205 6.716-7.75-20.815s3.041-.601 7.803 3.315"/>
            <path fill="#0049A2" d="M150.971 188.747c4.331 3.56 12.152 10.784 12.152 10.784l-12.205 6.716-7.75-20.815s3.041-.601 7.803 3.315"/>
            <path fill="#006CF0" d="M119.954 190.507s-2.763 2.767-2.763 9.467v14.47l-.212 27.326c10.601 5.588 23.988 5.913 35.297-2.346 0 0-.54-35.124-.54-40.876 0-5.753-3.207-13.231-12.032-13.744l-11.395 2.646-8.355 3.057z"/>
            <path fill="#1A2E35" d="M123.942 170.076s1.699 7.983 2.38 9.294c.682 1.312 2.09 1.685 2.09 1.685l-.119-5.616-4.351-5.363zM126.074 158.64s-1.83-.313-3.256 1.145c-1.399 1.43-.618 5.907 1.124 10.291l3.2.367-1.068-11.803z"/>
            <path fill="#FFAAA8" d="M128.103 170.446c-.642.383-1.558-.85-2.35-1.678-.79-.827-3.374-1.96-4.663.757-1.313 2.767 1.138 6.424 3.172 7.062 3.505 1.1 4.03-1.148 4.03-1.148l.269 12.644s3.02 4.988 10.792 6.2c3.97.62 4.936-3.244.613-6.534l-.01-3.848s3.176.482 4.725.242c2.578-.398 4.2-2.432 4.982-5.222 1.256-4.482 1.733-8.101.668-16.916-1.17-9.661-12.406-9.762-18.474-5.942-6.068 3.819-3.754 14.383-3.754 14.383"/>
            <path fill="#1A2E35" d="M128.103 171.526c-.323.006-1.55-2.031-2.35-2.758-1.106-1.007.322-10.128.322-10.128s-1.064-2.267 1.068-4.613c1.517-1.67 4.05-1.855 8.377-2.534 2.27-.357 5.712-.992 7.979-1.414 2.707-.503 4.948-1.036 6.859.625 1.488 1.293 2.128 3.577 1.328 5.378-.188.422-.46.803-.77 1.147-.547.609-1.167 1.089-1.947 1.342 0 0-1.181 1.047-5.287 1.547s-10.502-.096-11.376-.216c-1.191-.162-1.445.992-2.087 4.145-.564 2.767-1.032 7.458-2.116 7.479"/>
            <path fill="#1A2E35" d="M126.08 159.35l-3.88-2.083c.55-1.112 1.867-1.547 2.938-.972 1.072.576 1.494 1.943.943 3.055"/>
            <path fill="#FF9090" d="M139.956 183.9s-5.754-1.159-7.767-2.229c-1.346-.715-2.455-1.956-2.78-2.75 0 0 .377 1.707 1.579 3.244 1.472 1.881 8.968 3.266 8.968 3.266v-1.53z"/>
            <path fill="#1A2E35" d="M138.572 169.007c0 .662-.516 1.197-1.153 1.195-.637-.002-1.153-.54-1.153-1.2 0-.663.516-1.198 1.153-1.197.637.002 1.153.54 1.153 1.202M137.35 164.653l-2.468 1.362c-.364-.709-.106-1.589.575-1.965.682-.376 1.53-.106 1.892.603"/>
            <path fill="#FF9090" d="M139.434 176.973l2.633.988c-.26.754-1.06 1.145-1.788.872-.727-.273-1.105-1.106-.845-1.86"/>
            <path fill="#1A2E35" d="M148.856 165.613l-2.25-1.732a1.363 1.363 0 0 1 1.956-.3c.621.478.752 1.388.294 2.032M148.163 168.68c0 .661-.516 1.195-1.153 1.193-.637 0-1.153-.539-1.153-1.2 0-.662.516-1.197 1.153-1.196.637.002 1.153.54 1.153 1.202"/>
            <path fill="#FF9090" d="M142.288 167.585l.378 6.935 3.622-1.234z"/>
            <path fill="#1A2E35" d="M124.344 349.037v-1.056c.707.307 2.349 6.572 5.279 9.245 2.329 2.125 5.508 4.58 6.316 6.948.84 2.464-4.426 3.824-6.602 3.439-2.53-.448-6.912-2.23-8.013-3.88-1.1-1.65-1.615-4.086-2.51-5.295-.894-1.21-2.955-2.561-3.438-3.961-.266-.77.05-2.454.423-3.877.342-1.306.713-2.742 1.159-2.62v.806c.536.594 2.02 1.184 3.693 1.248 1.08.042 3.702-.173 3.693-.997M150.025 337.34c.384.014.696.555 1.542 1.47 1.022 1.107 2.694 2.3 4.345 3.126 2.765 1.384 8.142 3.514 10.575 4.611 1.52.684 1.449 2.521-.122 3.565-1.571 1.045-5.365 1.798-9.921.78-2.482-.555-5.712-2.847-7.757-2.724-2.045.124-5.871.094-7.38-.946-1.51-1.04-.906-3.262-.479-5.172.465-2.083 1.048-5.333 1.738-5.19v.718c.887 1.345 5.469 1.892 7.42.902l.039-1.14zM135.82 258.68s5.903-1.663 10.285-5.897c0 0-1.985 3.716-7.886 7.173l1.262 26.06-3.66-27.336z"/>
            <path fill="#FFF" d="M145.03 286.663l-.698-.402c-1.114-.643-2.016-2.207-2.016-3.493V210.97c0-1.286.903-2.85 2.017-3.493l62.18-35.9c1.113-.642 2.918-.642 4.032 0l.696.403c1.114.643 2.017 2.206 2.017 3.493v71.798c0 1.286-.903 2.85-2.017 3.493l-62.179 35.899c-1.114.643-2.919.643-4.033 0"/>
            <path fill="#282829" d="M178.978 200.857c10.776-6.222 19.51-1.178 19.51 11.265 0 12.443-8.734 27.572-19.51 33.795-10.776 6.221-19.511 1.177-19.511-11.266 0-12.442 8.735-27.573 19.51-33.794"/>
            <path fill="#E21C40" d="M178.84 210.65c3.496-2.02 6.33-.383 6.33 3.653 0 4.037-2.834 8.946-6.33 10.964-3.496 2.018-6.33.382-6.33-3.655 0-4.036 2.834-8.945 6.33-10.963M191.315 232.174c0-6.632-4.657-9.32-10.399-6.004l-3.59 2.072c-5.744 3.316-10.4 11.381-10.4 18.013v1.785c3.32 1.102 7.5.505 12.051-2.124 4.682-2.703 8.976-7.09 12.338-12.204v-1.538z"/>
            <path fill="#F5F5F5" d="M213.238 175.148c-.137-1.045-.982-1.426-1.996-.845l-62.184 35.908c-.56.317-1.056.877-1.425 1.5l-4.72-2.725c.358-.634.865-1.183 1.424-1.51l62.173-35.897c1.12-.645 2.926-.645 4.035 0l.697.401c1.014.591 1.87 1.954 1.996 3.168"/>
            <path fill="#E1E1E1" d="M148.72 286.821c-1.108.475-2.682.422-3.685-.158l-.708-.402c-1.108-.644-2.006-2.207-2.006-3.495v-71.795c0-.644.222-1.362.59-1.985l4.722 2.724c-.36.634-.591 1.352-.591 1.986v71.805c0 1.151.728 1.69 1.679 1.32"/>
            <path fill="#CCD8E5" d="M157.527 268.762v.038c0 2.042 1.434 2.869 3.201 1.848l36.497-21.072c1.768-1.021 3.201-3.503 3.201-5.544v-.038c.001-2.041-1.432-2.868-3.2-1.848l-36.498 21.072c-1.767 1.02-3.2 3.502-3.2 5.544"/>
            <path fill="#FFAAA8" d="M108.102 233.749c-3.788-2.632-3.738-6.558-2.526-11.038 8.25-30.502 10.774-30.664 14.379-32.204l2.888 12-7.711 24.992c5.772 4.096 11.71 6.878 17.25 8.089.98.215 2.972.088 3.848-.404 2.349-1.32 3.676-1.321 6.08-1.967v3.935s2.8.47 6.475-.215c4.982-.93 7.165.104 4.116 5.806-1.911 3.574-5.623 4.753-14.921 3.148-2.678-.462-6.752-1.504-10.015-2.61-8.496-2.876-15.764-6.684-19.863-9.532"/>
            <path fill="#00DFBF" d="M119.954 190.507s3.545 2.225 4.307 7.82c.762 5.595-4.617 20.795-4.617 20.795s-8.69-.832-12.296-5.113c0 0 5.024-13.903 5.965-17.044 1.496-4.992 5.272-5.958 6.641-6.458"/>
            <path fill="#0049A2" d="M119.954 190.507s3.545 2.225 4.307 7.82c.762 5.595-4.617 20.795-4.617 20.795s-8.69-.832-12.296-5.113c0 0 5.024-13.903 5.965-17.044 1.496-4.992 5.272-5.958 6.641-6.458"/>
            <path fill="#FFAAA8" d="M213.257 192.468l-.001 4.44s-2.405 3.656-4.983 5c-2.58 1.344-2.563 6.742.652 7.5 3.216.76 7.625-3.202 7.999-5.382.375-2.181-.441-11.792-3.667-11.558"/>
        </g>
        <g>
            <path fill="#ABB5C0" d="M301.453 261.187c-7.333 4.234-11.891 1.23-11.891-7.237s6.06-18.839 13.393-23.072c7.332-4.233 11.774-1.153 11.774 7.313 0 8.467-5.944 18.763-13.276 22.996zm34.317-35.968l-3.872-2.232-.001.003c-.16-.09-.372-.097-.607.01l-6.995 3.152c-.494.223-1.002-.023-1.165-.539a15.597 15.597 0 0 0-1.56-3.468c-.283-.462-.346-1.21-.106-1.695l4.662-9.4a1.058 1.058 0 0 0-.413-1.37l-5.06-2.922a1.06 1.06 0 0 0-1.392.326l-5.81 8.74c-.301.45-.98.77-1.522.755a14.623 14.623 0 0 0-2.03.094v-6.39l-3.882-2.238v.001c-.172-.09-.397-.08-.635.057l-7.86 4.537c-.467.271-.887.928-.936 1.467l-.787 8.745c-.048.54-.42 1.266-.818 1.633a47.418 47.418 0 0 0-4.365 4.62c-.346.417-1.032.617-1.544.438l-5.045-1.762c-.511-.178-1.144.057-1.416.526l-5.777 10.007c-.271.47-.157 1.136.253 1.49l4.048 3.487c.41.354.58 1.05.392 1.557a47.38 47.38 0 0 0-1.82 6.092c-.117.528-.562 1.211-1.004 1.523l-7.18 5.054c-.442.312-.801 1.003-.801 1.545v9.074c0 .28.108.482.279.584l-.002.002 3.87 2.232 5.75-2.722c.223.466.458.915.717 1.337.282.462.346 1.21.105 1.695l-4.662 9.401a1.06 1.06 0 0 0 .414 1.37l5.06 2.92a1.056 1.056 0 0 0 1.39-.327l5.812-8.738c.3-.45.98-.769 1.52-.755a15.708 15.708 0 0 0 3.785-.384c.529-.117.995.2 1.049.74l.767 7.634c.026.261.14.444.303.535l-.002.002 3.864 2.228 4.64-6.817c.47-.27.889-.928.938-1.467l.787-8.745c.049-.539.506-1.113 1.006-1.322 2.245-.94 4.515-2.565 6.105-4.283.367-.397 1.053-.597 1.564-.417l3.098 1.091c.51.18 1.144-.055 1.415-.524l5.777-10.007c.272-.469.158-1.136-.252-1.489l-2.661-2.293c-.41-.354-.58-1.049-.432-1.57.638-2.239.783-5.168.722-7.252-.016-.542.312-1.233.755-1.545l7.179-5.053c.443-.312.8-1.004.8-1.545l3.433-4.113.155-3.32z"/>
            <g fill="#D7D7D7">
                <path d="M324.584 214.158l1.542-3.11a1.058 1.058 0 0 0-.413-1.368l-5.06-2.921a1.058 1.058 0 0 0-1.392.326l-5.81 8.739a1.53 1.53 0 0 1-.387.372l6.503 3.754 5.017-5.792zM279.257 251.873c-.168.237-.359.453-.555.59l-7.179 5.054c-.18.127-.339.325-.473.543l4.381 2.53 9.531-5.423-5.705-3.294zM283.622 227.723c-.404.015-.81.234-1.011.584l-5.777 10.007a1.174 1.174 0 0 0-.13.731l4.98 2.875 7.909-10.698-5.971-3.499zM296.738 213.587l6.162 3.558 6.999-4.042v-2.82l-3.882-2.238v.001c-.173-.091-.397-.081-.635.057l-7.86 4.537c-.322.187-.612.559-.784.947M335.772 225.22v.007c-.156-.104-.379-.111-.621 0l-6.995 3.15c-.49.224-1-.018-1.163-.534a15.223 15.223 0 0 0-1.001-2.46l5.296-2.385c.235-.105.451-.098.608-.006v-.007l3.876 2.236z"/>
            </g>
            <path fill="#FFF" d="M305.317 263.416c-7.332 4.233-13.276.8-13.276-7.665 0-8.467 5.944-18.762 13.276-22.996 7.333-4.233 13.276-.801 13.276 7.665 0 8.467-5.943 18.762-13.276 22.996m30.731-28.536v-9.074c0-.542-.4-.801-.894-.578l-6.995 3.153c-.493.222-1.001-.023-1.165-.54a15.593 15.593 0 0 0-1.56-3.468c-.282-.461-.346-1.21-.105-1.695l4.662-9.401a1.058 1.058 0 0 0-.414-1.368l-5.06-2.922a1.058 1.058 0 0 0-1.392.326l-5.811 8.739c-.3.45-.979.769-1.52.755a15.658 15.658 0 0 0-3.784.384c-.529.117-.995-.2-1.049-.74l-.767-7.634c-.054-.54-.479-.756-.947-.485l-7.859 4.537c-.469.27-.888.928-.937 1.467l-.787 8.745c-.049.539-.419 1.266-.818 1.632a47.554 47.554 0 0 0-4.366 4.62c-.345.418-1.032.618-1.544.439l-5.045-1.762c-.511-.178-1.144.057-1.416.526l-5.777 10.007c-.271.47-.157 1.136.253 1.49l4.048 3.488c.41.353.581 1.048.392 1.556a47.374 47.374 0 0 0-1.818 6.092c-.119.528-.563 1.21-1.006 1.523l-7.179 5.054c-.443.312-.801 1.003-.801 1.545v9.074c0 .542.4.8.893.578l6.995-3.153c.494-.223 1.002.023 1.165.54a15.66 15.66 0 0 0 1.56 3.468c.282.462.346 1.21.105 1.695l-4.662 9.4a1.06 1.06 0 0 0 .414 1.37l5.06 2.92a1.057 1.057 0 0 0 1.391-.326l5.811-8.737c.301-.452.98-.77 1.522-.756a15.708 15.708 0 0 0 3.784-.384c.528-.117.995.2 1.048.739l.768 7.635c.054.539.478.756.946.485l7.86-4.537c.468-.271.888-.928.937-1.467l.787-8.745c.048-.54.419-1.266.818-1.632a47.422 47.422 0 0 0 4.364-4.621c.346-.417 1.033-.616 1.544-.438l5.045 1.762c.512.178 1.145-.057 1.417-.526l5.777-10.007c.271-.47.157-1.136-.253-1.49l-4.048-3.488c-.41-.353-.581-1.048-.392-1.556a47.38 47.38 0 0 0 1.819-6.092c.118-.528.563-1.211 1.005-1.523l7.18-5.053c.442-.312.801-1.004.801-1.546"/>
            <path fill="#ABB5C0" d="M282.046 319.688c-4.049 3.183-7.925 2.316-8.657-1.936-.732-4.251 2.581-9.655 6.63-12.837 4.048-3.183 7.298-2.941 8.031 1.311.732 4.252-1.956 10.279-6.004 13.462zm15.03-23.34v.006c-.187-.112-.433-.103-.685.063l-3.307 2.176c-.452.298-1.017.145-1.327-.299a6.787 6.787 0 0 0-.646-.79c-.373-.392-.575-1.066-.387-1.574l5.256-3.331-3.923-2.264-.004.003a.89.89 0 0 0-.259-.104l-2.493-.558c-.528-.118-1.16.175-1.412.655l-2.344 4.466c-.252.479-.892.932-1.416 1.065-.048.012-.097.029-.145.042.145-.423.206-1.039.206-1.039l-3.935-2.27.001.004c-.21-.123-.48-.099-.737.101l-3.736 2.937c-.425.335-.743 1.044-.71 1.585l.223 3.553c.034.541-.233 1.305-.58 1.72a29.936 29.936 0 0 0-1.735 2.296c-.305.447-.979.797-1.52.771l-2.4-.119c-.542-.026-1.16.352-1.38.847l-2.258 5.062a.957.957 0 0 0 .386 1.215v.005l2.66 1.535c.086.219.114.46.062.689a22.951 22.951 0 0 0-.416 2.415c-.06.538-.41 1.273-.808 1.64l-3.31 3.043c-.399.367-.647 1.096-.555 1.63l.621 3.61c.041.235.151.399.298.489l-.004.003 3.947 2.278.052-4.519c.453-.298 1.016-.144 1.328.3.2.285.414.548.644.789.373.392.575 1.067.387 1.575l-1.686 4.561a.827.827 0 0 0 .33 1.014l-.002.003 3.941 2.275 1.073-2.937 1.524-3.784c.252-.479.891-.931 1.416-1.065a11.812 11.812 0 0 0 1.535-.507c.502-.203 1.022.02 1.18.538l.841 2.798a.724.724 0 0 0 .322.436l-.003.003 3.952 2.279-.692-4.371 1.21-.951c.426-.335.744-1.044.71-1.585l-.223-3.553c-.034-.541.234-1.305.582-1.72.612-.732 1.536-1.123 2.08-1.919.304-.447.633-1.174 1.174-1.147l2.401.118c.541.027 1.158-.352 1.38-.847l2.257-5.062a.962.962 0 0 0-.503-1.28l-1.94-.827c-.499-.213-.786-.809-.666-1.337.185-.814.326-1.621.416-2.414.062-.538.41-1.274.81-1.641l3.308-3.043c.284-.26.484-.704.548-1.13l3.006-2.344-3.92-2.262z"/>
            <g fill="#D7D7D7">
                <path d="M267.27 318.885l-3.272 3.009c-.243.222-.416.579-.505.943l4.86 2.807.003-.26c.453-.296 1.017-.143 1.328.3l.004.006 4.684-2.704-7.102-4.101zM275.608 309.775c.369-.571.771-1.127 1.204-1.665l-4.665-2.694c-.228.094-.467.156-.685.146l-2.402-.12c-.341-.016-.712.129-.995.362l7.181 4.146.362-.175zM300.998 298.608c-.184-.105-.425-.085-.674.078l-3.307 2.177c-.452.295-1.014.144-1.328-.3a6.393 6.393 0 0 0-.647-.791c-.373-.393-.575-1.066-.386-1.576l.315-.843 1.418-.935c.255-.164.504-.177.686-.066v-.006l3.923 2.262zM291.222 297.64c-.038-.043-.07-.094-.11-.136-.373-.392-.576-1.067-.388-1.574l5.256-3.332-3.923-2.263-.004.003a.89.89 0 0 0-.259-.104l-2.493-.558c-.528-.118-1.16.175-1.412.655l-2.344 4.466c-.113.216-.31.421-.535.6l5.295 3.056.917-.814zM275.17 296.616l4.861 2.807 3.997-3.662c.113-.406.162-.896.162-.896l-3.935-2.27.001.004c-.21-.124-.482-.1-.737.101l-3.736 2.937c-.276.217-.496.594-.614.98"/>
            </g>
            <path fill="#FFF" d="M285.978 321.957c-4.048 3.183-7.924 2.316-8.656-1.936-.733-4.252 1.956-10.279 6.005-13.46 4.048-3.185 7.923-2.318 8.656 1.934.731 4.252-1.956 10.28-6.005 13.462m15.952-19.234l-.62-3.61c-.093-.533-.534-.725-.986-.427l-3.308 2.176c-.452.298-1.017.144-1.327-.299a6.883 6.883 0 0 0-.645-.79c-.374-.392-.575-1.066-.387-1.575l1.686-4.56a.833.833 0 0 0-.617-1.135l-2.492-.558c-.528-.118-1.16.175-1.413.655l-2.343 4.466c-.252.48-.892.932-1.417 1.065-.5.127-1.014.296-1.535.507-.502.203-1.022-.02-1.178-.538l-.843-2.798c-.156-.518-.629-.667-1.054-.333l-3.736 2.937c-.425.335-.743 1.044-.709 1.585l.223 3.553c.034.541-.233 1.305-.58 1.72a29.68 29.68 0 0 0-1.735 2.296c-.306.447-.98.797-1.52.771l-2.4-.119c-.542-.027-1.16.352-1.38.847l-2.258 5.062a.961.961 0 0 0 .502 1.28l1.94.827c.498.213.785.81.666 1.337a22.445 22.445 0 0 0-.416 2.415c-.06.538-.41 1.273-.809 1.64l-3.31 3.043c-.398.366-.647 1.096-.555 1.63l.622 3.61c.091.533.533.725.985.427l3.308-2.176c.452-.298 1.016-.144 1.327.3.2.285.415.547.644.79.373.391.575 1.066.388 1.574l-1.687 4.561a.834.834 0 0 0 .618 1.134l2.492.558c.528.118 1.161-.175 1.412-.655l2.345-4.466c.251-.479.89-.93 1.416-1.065a11.912 11.912 0 0 0 1.535-.507c.502-.203 1.021.02 1.178.538l.843 2.798c.157.518.628.667 1.054.333l3.734-2.937c.426-.335.744-1.044.71-1.585l-.222-3.553c-.035-.54.233-1.305.581-1.72a29.68 29.68 0 0 0 1.734-2.296c.306-.447.98-.797 1.521-.77l2.401.118c.54.027 1.158-.352 1.38-.847l2.256-5.062a.962.962 0 0 0-.502-1.28l-1.94-.827c-.499-.213-.787-.809-.667-1.337.186-.814.326-1.62.416-2.414.062-.538.41-1.274.81-1.64l3.31-3.044c.398-.366.647-1.096.554-1.63"/>
            <path fill="#ABB5C0" d="M230.605 325.692c-7.333 4.233-11.89 1.23-11.89-7.237s6.059-18.839 13.392-23.072c7.332-4.233 11.774-1.153 11.774 7.313 0 8.467-5.944 18.763-13.276 22.996zm34.317-35.968l-3.872-2.233v.004c-.16-.09-.372-.097-.608.01l-6.996 3.152c-.493.222-1.001-.023-1.165-.54a15.606 15.606 0 0 0-1.558-3.467c-.284-.462-.348-1.21-.107-1.696l4.662-9.4a1.056 1.056 0 0 0-.414-1.369l-5.06-2.922a1.059 1.059 0 0 0-1.391.326l-5.81 8.74c-.3.45-.98.768-1.522.754a14.783 14.783 0 0 0-2.03.095v-6.39l-3.882-2.238v.001c-.172-.09-.397-.08-.635.057l-7.86 4.537c-.467.271-.887.928-.936 1.467l-.787 8.745c-.048.54-.42 1.266-.817 1.633a47.427 47.427 0 0 0-4.366 4.62c-.345.417-1.033.617-1.544.438l-5.044-1.762c-.512-.178-1.145.057-1.416.526l-5.778 10.007c-.271.47-.158 1.136.253 1.49l4.048 3.487c.41.354.58 1.05.392 1.557a47.38 47.38 0 0 0-1.82 6.092c-.117.528-.561 1.211-1.004 1.523l-7.18 5.054c-.442.312-.801 1.003-.801 1.545v9.074c0 .28.108.482.279.584l-.002.001 3.87 2.233 5.75-2.722c.223.466.459.915.716 1.337.284.461.347 1.21.107 1.695l-4.663 9.401a1.058 1.058 0 0 0 .414 1.368l5.06 2.922a1.057 1.057 0 0 0 1.392-.327l5.81-8.738c.3-.45.98-.769 1.52-.755a15.704 15.704 0 0 0 3.785-.384c.529-.117.995.2 1.049.74l.767 7.634c.026.261.14.444.303.535l-.002.002 3.864 2.228 4.64-6.817c.47-.27.89-.928.938-1.467l.787-8.745c.049-.539.507-1.113 1.006-1.322 2.245-.94 4.515-2.566 6.105-4.283.367-.397 1.054-.597 1.565-.417l3.096 1.09c.512.18 1.145-.054 1.416-.523l5.778-10.007c.27-.469.158-1.136-.253-1.489l-2.66-2.293c-.411-.354-.581-1.05-.433-1.57.638-2.239.783-5.168.722-7.252-.016-.542.312-1.233.755-1.545l7.179-5.053c.443-.312.802-1.004.802-1.546l3.43-4.112.156-3.32z"/>
            <g fill="#D7D7D7">
                <path d="M253.736 278.663l1.542-3.109a1.058 1.058 0 0 0-.414-1.369l-5.06-2.92a1.057 1.057 0 0 0-1.391.325l-5.811 8.738a1.511 1.511 0 0 1-.386.373l6.503 3.754 5.017-5.792zM208.41 316.378c-.169.237-.36.453-.556.59l-7.179 5.054c-.18.127-.339.325-.473.543l4.381 2.53 9.531-5.424-5.705-3.293zM212.774 292.228c-.404.015-.81.235-1.01.584l-5.778 10.007a1.167 1.167 0 0 0-.13.731l4.98 2.875 7.909-10.698-5.971-3.499zM225.89 278.092l6.162 3.558 7-4.042v-2.82l-3.883-2.238v.001c-.173-.09-.398-.08-.635.057l-7.859 4.537c-.323.187-.614.558-.785.947M264.924 289.726v.007c-.157-.105-.379-.111-.62 0l-6.996 3.15c-.49.223-1-.02-1.164-.535a15.12 15.12 0 0 0-1-2.458l5.295-2.387c.235-.104.451-.098.608-.006v-.007l3.877 2.236z"/>
            </g>
            <path fill="#FFF" d="M234.47 327.92c-7.334 4.234-13.278.802-13.278-7.665 0-8.466 5.944-18.762 13.277-22.995 7.332-4.233 13.276-.802 13.276 7.665s-5.944 18.762-13.276 22.996m30.73-28.536v-9.075c0-.541-.399-.8-.893-.577l-6.995 3.153c-.494.222-1.002-.023-1.165-.54a15.684 15.684 0 0 0-1.56-3.468c-.283-.461-.346-1.21-.106-1.695l4.663-9.401a1.06 1.06 0 0 0-.414-1.37l-5.06-2.92a1.057 1.057 0 0 0-1.392.326l-5.81 8.739c-.3.45-.98.769-1.522.755a15.663 15.663 0 0 0-3.784.384c-.528.117-.994-.2-1.048-.74l-.768-7.634c-.054-.54-.478-.756-.947-.485l-7.859 4.537c-.469.27-.888.927-.937 1.467l-.787 8.745c-.049.539-.419 1.266-.817 1.632a47.44 47.44 0 0 0-4.366 4.62c-.346.418-1.033.617-1.544.439l-5.045-1.762c-.51-.178-1.145.057-1.416.526l-5.778 10.007c-.27.47-.157 1.136.253 1.49l4.048 3.488c.41.353.581 1.048.393 1.556a47.414 47.414 0 0 0-1.819 6.09c-.118.53-.562 1.213-1.005 1.525l-7.179 5.054c-.443.312-.802 1.003-.802 1.545v9.074c0 .542.4.8.894.578l6.995-3.153c.493-.223 1.002.023 1.165.539a15.645 15.645 0 0 0 1.56 3.469c.282.462.346 1.21.105 1.695l-4.662 9.4a1.06 1.06 0 0 0 .413 1.37l5.06 2.92c.47.27 1.093.125 1.392-.326l5.811-8.737c.3-.452.98-.77 1.521-.756a15.66 15.66 0 0 0 3.784-.385c.53-.116.995.2 1.05.74l.766 7.635c.054.539.478.756.947.485l7.86-4.537c.468-.271.888-.928.936-1.468l.787-8.744c.05-.54.42-1.266.818-1.632a47.301 47.301 0 0 0 4.364-4.621c.346-.417 1.034-.616 1.545-.438l5.045 1.762c.512.178 1.145-.057 1.416-.526l5.778-10.007c.271-.47.157-1.136-.253-1.49l-4.048-3.488c-.41-.353-.582-1.048-.393-1.556a47.222 47.222 0 0 0 1.82-6.092c.118-.528.562-1.211 1.005-1.523l7.18-5.053c.442-.312.8-1.004.8-1.546"/>
        </g>
    </g>
</svg>
